<svg width="1185" height="899" viewBox="0 0 1185 899" fill="none" xmlns="http://www.w3.org/2000/svg">
<path d="M491.703 809.2C498.983 795.06 503.464 792.26 510.184 797.58C512.144 799.26 513.963 803.46 515.363 809.2C517.183 817.18 523.204 837.9 529.084 856.8C530.204 860.3 531.603 865.62 532.163 868.7C532.583 871.78 533.563 874.86 534.123 875.7C534.683 876.4 535.524 878.92 536.084 881.3C537.344 886.62 540.703 890.4 544.203 890.4C547.283 890.4 547.703 896.7 544.623 897.82C543.502 898.38 535.803 897.82 527.544 896.7C519.284 895.58 510.044 894.601 507.104 894.601C502.064 894.601 501.783 894.32 502.203 890.681C502.483 887.601 503.324 886.76 507.243 886.48C510.043 886.2 511.724 885.22 511.724 883.96C511.724 880.6 508.644 868.842 507.384 867.44C506.264 866.18 484.563 862.4 478.123 862.4C475.184 862.401 474.063 863.801 471.403 869.82C467.344 879.2 467.484 880.04 472.524 881.86C475.744 882.98 476.724 884.1 476.724 887.04V890.82L468.743 889.7C464.263 889.14 456.844 888.3 452.224 887.74C444.524 886.9 443.823 886.62 443.403 883.26C442.984 880.04 443.544 879.481 447.743 878.641C453.063 877.661 456.004 874.02 464.544 857.92C473.924 840.42 478.124 832.86 481.903 826.98C484.003 823.76 488.343 815.78 491.703 809.2ZM579.203 802.061C589.563 798.561 620.084 798.42 627.644 801.78C630.443 803.04 633.242 804.019 633.663 803.88C635.623 803.46 638.143 812.421 638.283 819.561C638.283 825.58 637.583 827.96 634.644 831.88C632.544 834.54 628.903 837.621 626.663 838.601C621.344 840.7 621.204 842.24 625.964 843.36C637.304 846.3 644.304 856.66 643.044 868.42C640.944 887.04 626.104 897.26 601.044 897.4C580.184 897.4 570.244 894.04 568.424 886.061C567.164 880.741 570.104 880.32 578.363 884.38C584.383 887.32 586.764 887.741 597.403 887.181C609.303 886.761 609.723 886.62 614.623 881.58C618.963 877.1 619.524 875.7 619.524 869.4C619.524 855.12 613.083 849.8 595.863 849.8C585.784 849.8 584.244 848.96 583.964 843.641C583.684 839.441 585.504 838.601 595.443 838.601C607.063 838.601 611.964 836.08 614.064 828.66C615.604 824.04 615.463 821.94 613.783 817.181C612.103 812.281 610.844 811.02 606.504 809.62C599.364 807.24 590.404 808.78 586.484 812.98C584.804 814.801 582.703 819.141 581.863 822.641C580.463 828.24 579.904 828.8 577.104 827.96C575.424 827.54 573.884 826.84 573.604 826.7C572.624 825.86 570.243 806.26 570.943 805.42C571.504 805 575.144 803.46 579.203 802.061ZM763.024 777C766.244 775.74 769.323 777.701 769.323 781.061C769.323 782.461 767.224 784.56 764.424 785.82C760.924 787.5 759.524 789.04 759.524 791.28C759.664 796.18 762.324 813.679 763.724 818.3C764.424 820.54 766.384 830.34 768.064 840C772.124 863.1 772.404 863.8 778.004 863.8C784.164 863.8 786.684 865.62 785.564 869.12C784.864 871.36 782.623 872.2 775.203 873.46C770.023 874.44 762.463 875.841 758.403 876.681C754.343 877.521 748.464 878.36 745.104 878.36C739.784 878.5 739.224 878.22 739.224 875.141C739.224 872.621 740.344 871.5 744.123 870.24C747.623 869.12 749.024 867.86 748.884 865.9C748.324 858.2 743.703 831.74 742.863 832.16C742.443 832.44 742.024 830.48 741.884 827.681C741.604 818.721 739.644 807.8 738.104 807.8C737.404 807.8 737.124 809.061 737.544 810.601C737.964 812 737.544 813.12 736.844 812.98C736.144 812.84 733.623 818.3 731.243 825.3C729.003 832.16 725.924 840.42 724.524 843.5C723.124 846.58 720.743 852.6 719.203 856.8C713.743 872.059 705.764 885.359 700.584 887.88C692.604 891.94 689.803 891.24 688.823 885.08C686.303 868.98 684.483 859.04 679.443 833.7C676.363 818.44 673.563 805.28 673.283 804.72C672.862 804.16 670.063 803.601 666.984 803.601C660.964 803.601 658.304 800.52 661.663 797.44C662.783 796.32 669.923 794.501 677.623 793.101C685.323 791.841 694.424 790.301 697.924 789.601C705.764 788.341 707.724 789.04 707.724 793.24C707.724 795.9 707.023 796.601 704.363 796.601C698.204 796.601 697.224 799.68 699.044 813.12C700.024 819.84 701.283 828.101 702.123 831.601C702.823 835.101 704.224 841.96 705.344 847L707.163 856.101L710.943 847.84C713.043 843.36 714.724 839.16 714.724 838.46C714.724 837.76 715.284 836.08 715.984 834.681C718.084 830.481 724.244 814.521 727.884 803.601C735.024 782.041 733.904 783.3 747.903 780.5C754.623 779.24 761.484 777.7 763.024 777ZM344.703 756.141C344.843 756.001 347.784 756.84 351.004 757.96C354.364 759.08 362.763 761.6 369.623 763.7C385.583 768.46 386.144 768.881 386.424 772.521C386.564 775.32 386.003 775.601 379.984 775.601C373.264 775.601 372.143 776.721 369.623 786.101C369.343 786.802 368.224 790.301 366.964 793.66C365.704 797.02 364.724 800.8 364.724 802.2C364.724 804.72 370.604 807.661 381.524 810.601C385.024 811.581 389.224 812.84 391.044 813.54C397.344 815.92 400.984 815.08 401.964 810.88C402.384 808.78 404.064 803.6 405.464 799.26C409.244 788.2 408.964 785.54 403.924 783.86C400.844 782.74 399.724 781.48 399.724 778.96C399.724 777 400.564 775.18 401.544 774.76C402.527 774.481 411.205 776.72 420.724 779.8C430.244 782.88 439.204 785.68 440.604 785.82C447.043 786.94 447.044 793.66 440.464 793.94C433.324 794.22 431.924 794.5 432.064 795.62C432.064 796.18 431.084 798.421 429.964 800.521C427.444 805.001 418.064 833.841 413.024 852.601L409.524 865.9L412.464 868.28C414.144 869.68 416.243 870.8 417.363 870.8C419.883 870.8 419.883 873.741 417.363 877.101C415.544 879.62 415.123 879.62 404.484 876.12C398.324 874.02 388.804 871.08 383.344 869.54C374.244 866.88 373.123 866.18 373.123 863.101C373.123 859.881 373.684 859.601 379.283 859.601C386.283 859.601 385.303 861.14 393.283 837.62L396.783 827.4L393.703 825.86C390.482 824.04 363.884 816.2 361.224 816.2C360.384 816.2 357.863 821.66 355.903 828.38C350.584 846.579 350.584 849.24 355.623 851.2C360.103 852.88 361.503 856.38 358.984 859.04C357.164 860.72 355.064 860.44 343.724 856.8C336.444 854.56 326.784 851.76 322.304 850.5C315.304 848.54 314.184 847.7 314.604 845.181C314.884 842.661 316.144 841.961 320.623 841.681C324.403 841.401 326.924 840.421 328.044 838.601C329.584 835.941 335.744 817.6 343.024 793.101C345.124 786.101 347.364 779.1 348.064 777.28C350.444 771.12 349.603 767.341 345.123 765.101C339.524 762.301 339.384 758.101 344.703 756.141ZM366.264 866.04C366.124 864.5 366.544 863.66 366.964 864.22C367.384 864.64 367.523 865.9 367.104 866.88C366.684 868 366.264 867.58 366.264 866.04ZM860.044 738.36C864.384 736.121 865.924 736.4 867.884 739.76C869.144 741.72 868.724 742.7 865.644 744.94C863.404 746.62 861.724 748.581 861.724 749.561C861.725 754.042 878.104 797.301 885.804 812.98C888.464 818.44 889.164 819 894.064 819C899.524 819 903.303 822.5 901.203 825.44C899.803 827.26 894.343 830.2 892.243 830.2C889.162 830.201 868.724 838.88 869.283 839.86C869.703 840.42 867.324 840.84 864.104 840.7C859.204 840.7 858.224 840.14 857.804 837.76C857.524 835.66 858.784 833.7 861.584 831.74C865.364 829.08 865.503 828.38 864.243 824.181C863.403 821.801 862.144 818.581 861.584 817.32C860.884 815.92 860.323 813.82 860.323 812.7C860.323 811.3 859.624 810.88 858.644 811.44C857.804 812 857.524 811.86 858.084 810.88C859.203 809.059 855.983 799.259 850.384 787.08C848.144 782.18 846.323 777.7 846.323 777C846.323 776.387 845.359 774.167 844.086 771.746L842.961 769.654C841.688 767.231 840.724 764.995 840.724 764.26C840.723 763.42 839.884 761.88 838.764 760.76C836.944 759.08 835.823 759.22 830.363 761.88C823.223 765.24 818.884 771.961 820.144 777.141C821.684 782.88 826.584 789.6 830.363 791C834.983 792.82 842.543 792.82 844.363 791C845.203 790.16 847.024 789.88 848.424 790.44C850.384 791.28 850.664 792.541 850.104 797.86C849.544 801.36 848.984 805.561 848.564 807.101C848.143 808.642 846.044 818.861 843.804 829.641C841.564 840.56 839.323 850.08 838.903 850.78C838.483 851.48 833.303 853.581 827.424 855.4C821.404 857.36 816.364 859.74 815.943 860.58C815.523 861.84 814.263 861.14 812.443 858.76L809.644 855.26L812.724 851.9C815.944 848.4 820.983 832.44 821.123 825.16C821.123 822.92 821.684 820.401 822.384 819.561C823.084 818.861 824.063 814.52 824.623 809.76L825.604 801.22L818.323 800.38C804.604 798.7 796.484 788.62 797.604 774.76C798.024 770 799.284 766.08 800.964 764.26C803.764 761.18 813.424 756.42 828.123 750.82C833.163 748.86 839.184 746.48 841.424 745.5C843.804 744.52 848.004 742.84 850.943 742C854.023 741.02 858.084 739.48 860.044 738.36ZM500.104 838.32C496.464 826.281 495.903 825.16 494.083 827.68C491.004 832.019 481.766 851.055 482.463 851.76C482.883 852.18 487.783 853.02 493.243 853.44C505.143 854.56 505.004 854.98 500.104 838.32ZM590.823 851.48C593.203 851.48 594.184 851.761 593.344 852.181C592.364 852.461 590.404 852.461 589.144 852.181C587.744 851.761 588.584 851.48 590.823 851.48ZM817.064 831.04C816.924 829.5 817.344 828.66 817.764 829.22C818.184 829.64 818.323 830.9 817.903 831.88C817.483 833 817.064 832.58 817.064 831.04ZM387.123 37.2402C387.123 72.1002 387.264 74.4803 389.644 73.7803C390.904 73.3603 398.324 71.2599 406.024 68.8799C413.724 66.6399 422.964 63.9804 426.604 62.8604C430.243 61.8805 432.763 60.4807 432.344 59.6406C431.924 58.9406 432.204 58.8004 433.044 59.3604C434.726 60.3395 452.92 57.4008 452.924 56.1406C452.924 55.7206 454.604 55.3002 456.844 55.1602C458.944 55.0201 465.664 53.9005 471.823 52.6406C521.243 42.2806 591.804 39.1998 648.224 44.7998C677.483 47.8798 694.003 49.8406 697.783 51.1006C699.043 51.3806 703.104 52.08 707.024 52.5C710.803 53.0599 714.723 54.04 715.703 54.8799C716.683 55.7199 719.064 55.9997 721.024 55.7197C722.983 55.2998 724.523 55.4402 724.524 56C724.524 57.12 740.204 60.4798 746.504 60.7598C748.884 60.8998 750.563 61.3203 750.283 61.7402C750.004 62.3003 753.364 63.7004 757.703 64.8203C764.003 66.6403 765.964 66.7799 766.804 65.3799C767.504 64.1203 767.924 64.4006 767.924 65.9404C767.925 68.6004 779.264 72.3801 782.064 70.7002C783.044 70.0002 783.463 70.1405 782.903 70.9805C781.924 72.5204 785.844 74.4799 794.524 76.7197C805.863 79.7997 867.601 107.659 873.623 112.42C875.163 113.54 885.804 120.26 897.424 127.12C909.604 134.26 939.844 157.36 953.844 169.96C959.864 175.42 960.004 175.56 983.943 179.34C1011.66 183.96 1020.34 185.64 1023.84 187.32C1025.1 188.02 1029.44 189.42 1033.22 190.26C1044.28 192.92 1067.94 201.88 1070.74 204.4C1072.7 206.22 1072.98 207.481 1071.86 210.141C1069.62 215.601 1063.19 236.874 1063.6 237.3C1064.16 237.86 1092.16 239.26 1102.24 239.4C1110.92 239.4 1112.46 241.36 1109.1 248.22C1102.52 261.24 1096.92 275.94 1097.76 277.48C1098.32 278.46 1098.18 278.6 1097.2 278.04C1096.22 277.48 1095.52 277.901 1095.52 279.021C1095.52 280.141 1094.54 282.94 1093.28 285.46C1092.02 287.84 1091.46 290.78 1091.88 291.9C1092.3 293.02 1091.88 293.86 1090.9 293.58C1089.92 293.44 1089.22 294.561 1089.22 296.101C1089.22 298.76 1090.2 298.9 1108.4 299.04C1119.04 299.04 1128 299.46 1128.42 299.88C1128.98 300.44 1128.28 302.4 1127.02 304.36C1125.76 306.32 1125.06 308.559 1125.62 309.26C1126.04 310.24 1125.62 310.38 1124.36 309.96C1123.1 309.54 1122.12 309.68 1122.12 310.38C1122.12 310.94 1120.72 313.04 1118.9 315C1117.22 316.96 1111.06 324.101 1105.32 331.101C1099.58 337.96 1094.26 344.4 1093.42 345.24C1092.72 346.08 1090.34 348.74 1088.1 351.26C1085.02 354.76 1083.2 355.601 1078.58 355.601C1072.14 355.601 1005.64 352.1 971.623 350C941.103 348.04 921.083 348.32 885.524 350.7C846.744 353.36 813.144 357.7 792.844 362.46C786.404 363.86 777.724 365.96 773.524 366.8C757.284 370.44 720.603 382.761 697.783 392.141C676.643 400.961 642.204 419.861 617.424 436.101C607.344 442.821 587.604 456.96 583.684 460.32C582.984 461.02 579.483 463.82 575.984 466.34C542.384 492.1 468.464 568.681 471.964 574.141C472.664 575.26 472.384 575.4 471.264 574.84C470.144 574.14 469.303 574.84 468.743 576.66C468.323 578.34 467.343 579.6 466.363 579.74C465.523 579.741 461.464 584.361 457.544 589.82C453.484 595.42 448.723 601.44 446.903 603.4C445.223 605.36 442.143 609.42 440.323 612.5C436.263 619.08 436.124 619.36 430.384 626.22C428.004 629.16 426.184 631.821 426.604 632.101C427.585 633.08 437.664 629.019 450.123 622.72C474.903 610.12 500.524 600.74 521.524 596.54C552.044 590.66 564.784 589.4 599.224 589.4C627.084 589.4 656.764 591.081 671.044 593.601C678.184 594.86 679.164 594.72 690.084 589.4C696.524 586.32 702.124 583.8 702.684 583.8C703.104 583.8 706.464 582.4 710.104 580.72L716.684 577.641L699.884 575.26C690.784 574 677.204 572.18 669.924 571.34C662.644 570.36 652.844 569.1 648.224 568.4C643.604 567.7 636.323 566.72 632.123 566.16C627.923 565.6 623.023 564.761 621.203 564.061C619.383 563.361 615.324 562.8 612.104 562.66C607.484 562.66 606.784 562.38 609.024 561.4C610.564 560.7 642.763 560.141 680.703 560.141C731.243 560.141 750.424 559.72 752.804 558.46C754.624 557.62 762.604 552.86 770.724 548.101C804.043 528.361 812.443 523.601 813.564 523.601C814.264 523.601 816.784 522.06 819.024 520.24L823.224 516.88L819.443 515.061C817.203 514.081 815.524 512.82 815.524 512.26C815.523 511.7 814.263 510.72 812.724 510.3C811.184 509.88 809.084 508.48 807.964 507.36C806.844 506.24 798.444 500.08 789.344 493.78C780.244 487.34 766.243 477.4 758.123 471.66C750.003 466.06 742.864 460.88 742.024 460.32C741.324 459.62 739.083 458.081 737.403 456.681L734.044 454.16L737.123 454.021C738.803 453.881 745.524 456.26 751.964 459.34C758.404 462.28 764.424 464.8 765.264 464.8C765.964 464.8 769.184 466.06 772.403 467.74C785.423 474.46 826.164 485.661 847.724 488.601C863.824 490.841 893.644 490.84 906.524 488.74C920.103 486.36 934.802 483 936.623 481.74C937.463 481.18 940.824 479.92 944.184 478.94C953.844 476.14 981.283 461.3 996.823 450.521C1016.14 436.941 1036.86 420.981 1043.16 414.681C1044.14 413.841 1045.4 413 1046.1 413C1046.66 413 1049.74 410.621 1052.68 407.681C1055.76 404.881 1058.56 402.5 1058.98 402.5C1059.82 402.5 1073.4 393.402 1074.52 392.141C1075.78 390.601 1085.58 383.603 1086.28 383.601C1086.7 383.601 1090.48 381.36 1094.68 378.7C1102.52 373.66 1117.36 366.521 1127.02 363.021C1133.04 360.921 1138.78 359.521 1157.12 355.601C1163.7 354.201 1172.1 352.24 1175.74 351.4C1183.58 349.44 1186.24 350.84 1183.86 355.32C1183.02 356.72 1182.74 358.4 1183.02 358.96C1183.44 359.38 1183.3 359.52 1182.88 359.24C1180.22 357.42 1148.3 367.781 1149.7 370.021C1150.12 370.86 1149.84 371 1149 370.44C1145.78 368.48 1107.42 390.6 1079.42 410.76C1075.64 413.42 1070.88 416.921 1068.92 418.181C1060.52 424.201 1056.32 429.521 1056.32 434.141C1056.32 451.361 1042.46 495.74 1030.28 518C1028.32 521.5 1025.66 526.54 1024.4 529.2C1023.14 531.86 1021.6 534.66 1020.9 535.5C1020.34 536.2 1015.72 543.2 1010.54 550.9C999.344 567.98 990.524 578.34 970.224 598.5C954.824 613.9 939.843 626.64 926.823 635.74C922.903 638.4 917.584 642.18 914.924 644.28C912.264 646.24 908.064 649.04 905.684 650.58C903.304 651.98 897.284 655.621 892.384 658.561C887.484 661.641 872.084 669.76 858.224 676.9C826.724 692.72 803.344 702.24 771.424 712.04C765.264 713.86 757.424 716.38 753.924 717.5C733.624 723.94 692.323 732.34 656.623 736.96C601.743 744.24 545.884 742.98 483.724 732.76C454.884 728.14 410.224 716.52 382.504 706.44L373.123 703.08L362.903 715.12C357.443 721.84 352.123 727.86 351.283 728.7C350.443 729.401 346.663 733.88 343.024 738.5C339.384 743.12 335.884 747.181 335.464 747.601C335.044 748.021 333.083 750.12 331.123 752.22C328.183 755.58 328.044 756.42 329.724 757.54C331.264 758.66 331.123 758.801 328.743 758.101C326.924 757.681 325.524 757.68 325.524 758.38C325.524 759.64 324.824 760.48 304.104 784.28C299.624 789.46 296.263 794.361 296.823 795.061C297.243 795.9 296.823 796.18 295.703 795.76C294.583 795.34 292.343 797.16 290.104 800.38C286.184 806.26 270.504 823.2 269.104 823.2C267.144 823.2 268.263 820.4 272.323 814.38C274.703 810.88 276.524 807.38 276.524 806.54C276.524 805.7 277.084 805 277.644 805C279.464 805 282.263 798 281.283 796.32C280.723 795.48 281.004 795.2 281.844 795.76C283.384 796.74 283.944 796.18 294.863 779.521C298.783 773.641 301.584 768.04 301.024 767.2C300.604 766.36 300.744 765.94 301.443 766.08C302.563 766.36 318.524 744.66 318.524 742.84C318.519 742.698 315.861 741.58 312.783 740.601C307.323 738.781 306.763 738.78 304.663 741.58C297.103 751.52 266.444 797.999 267.564 798C268.124 798 267.704 798.981 266.724 800.101C265.184 801.92 265.464 802.9 268.544 806.12C273.024 810.74 273.304 812.841 269.524 814.101C266.304 815.08 261.123 813.82 261.123 811.86C261.123 811.16 260.564 810.601 259.724 810.601C259.068 810.601 255.581 808.385 251.803 805.57L250.285 804.43C246.508 801.616 243.03 799.402 242.504 799.4C241.804 799.4 239.003 797.72 236.203 795.62C233.404 793.521 230.884 791.701 230.604 791.561C230.324 791.421 230.884 789.88 231.724 788.2C232.704 786.38 234.244 785.54 235.644 785.96C245.444 788.9 244.884 789.04 252.724 777.42C256.924 771.4 262.383 763.42 264.903 759.78C267.563 756.14 269.243 752.5 268.823 751.8C268.264 750.96 268.544 750.4 269.384 750.4C270.924 750.399 277.083 742.14 276.243 741.3C275.959 741.023 270.501 743.822 264.064 747.601C257.764 751.521 252.163 754.601 251.743 754.601C251.322 754.601 248.803 756.141 246.283 758.101C243.764 760.06 241.385 761.6 240.964 761.601C240.544 761.601 234.244 765.38 226.964 770C208.064 781.9 204.004 781.2 206.384 766.92C208.484 754.32 212.824 722.82 214.224 710.08C215.064 701.96 213.244 700.28 210.304 706.58C209.464 708.82 207.503 711.76 206.243 713.16C204.843 714.7 202.463 718.481 200.783 721.561C199.103 724.78 197.423 727.58 196.863 728C194.203 729.82 185.523 745.08 186.363 746.48C186.923 747.46 186.644 747.6 185.804 747.04C182.584 745.08 184.124 750.26 187.484 752.92C189.864 754.74 190.704 756.421 190.144 758.521C189.024 762.86 186.083 763.28 181.743 759.78C179.503 757.96 173.623 753.9 168.443 750.54C158.924 744.38 157.803 742.98 160.323 739.2C161.303 737.52 162.284 737.52 166.344 738.92C171.524 740.74 175.723 740.04 175.724 737.101C175.724 736.121 176.284 735 176.844 734.72C178.665 734.018 188.323 719.18 188.323 717.22C188.324 716.24 188.884 715.4 189.724 715.4C191.125 715.399 207.923 691.182 207.924 688.94C207.924 688.24 208.344 687.4 209.044 687.12C209.604 686.839 211.144 684.6 212.684 682.08L215.203 677.32L211.424 673.4C207.504 669.34 207.364 665.7 211.144 664.16C212.684 663.6 227.663 672.421 239.283 680.681C241.803 682.501 241.804 683.2 238.304 706.3C231.724 749.418 231.584 751.1 233.823 751.101C234.523 751.101 235.083 750.68 234.943 750.12C234.664 749.56 235.504 749.421 236.764 749.98C238.024 750.4 239.423 750.26 239.984 749.561C240.404 748.861 242.784 747.18 245.024 745.92C267.984 733.04 285.764 721.56 285.344 719.88C285.205 719.32 287.444 718.76 290.243 718.62C294.583 718.2 297.804 719.74 309.144 727.16L322.724 736.12L328.743 726.88C343.863 703.36 349.323 694.82 349.323 694.12C349.322 693.28 327.623 683.2 325.663 683.2C324.963 683.2 324.124 682.78 323.844 682.08C323.704 681.52 320.063 679.421 315.863 677.181C303.963 671.161 289.964 663.32 288.144 661.92C287.164 661.22 285.623 661.081 284.783 661.641C283.804 662.2 283.524 662.06 283.943 661.08C284.503 660.24 280.864 657.16 275.544 653.66C270.224 650.44 265.743 647.36 265.323 646.8C264.903 646.239 262.383 644.28 259.724 642.46C254.544 638.96 244.044 631.26 242.924 630C242.504 629.58 239.144 626.78 235.224 623.7C226.684 616.98 227.944 617.96 212.684 603.4C191.824 583.38 166.764 551.32 154.304 529.2C150.104 521.5 139.464 500.22 137.924 496.3C137.364 494.759 135.263 489.16 133.163 483.98C128.403 471.8 120.284 438.06 118.464 422.8C115.244 397.18 117.204 360.22 123.084 333.9C126.164 320.04 130.084 305.9 131.064 305.2C131.624 304.78 132.604 302.26 133.443 299.601C136.383 289.101 152.203 256.201 159.484 245.561L162.984 240.38L158.224 236.04C155.704 233.66 152.904 229.181 152.064 226.101C150.384 219.941 149.824 2.66047 151.504 0.980469C151.925 0.420477 205.264 0 269.804 0H387.123V37.2402ZM429.123 820.4C429.963 820.4 430.523 820.96 430.524 821.8C430.524 822.5 429.963 823.2 429.123 823.2C428.423 823.2 427.724 822.5 427.724 821.8C427.724 820.96 428.423 820.401 429.123 820.4ZM887.203 805C887.203 803.04 887.483 802.341 887.903 803.181C888.183 804.161 888.183 805.841 887.903 806.681C887.484 807.66 887.203 806.96 887.203 805ZM670.623 787.08C673.003 787.08 673.984 787.36 673.144 787.78C672.164 788.06 670.203 788.06 668.943 787.78C667.544 787.36 668.384 787.08 670.623 787.08ZM998.084 646.94C1001.44 643.581 1002.56 643.021 1004.8 644.141C1006.34 644.981 1007.88 646.521 1008.3 647.641C1008.72 648.761 1007.74 651.14 1006.06 652.96C1004.52 654.64 1003.12 656.74 1003.12 657.44C1003.12 658.141 1007.32 663.741 1012.36 669.9C1017.54 676.06 1024.26 684.181 1027.48 688.101C1033.22 694.961 1050.58 714.98 1055.2 720.16C1056.6 721.7 1057.72 723.941 1057.72 725.061C1057.72 728.28 1049.88 732.2 1043.44 732.2C1038.12 732.2 984.924 724.08 970.504 721C966.724 720.3 962.383 719.6 960.703 719.74C957.904 719.88 957.904 720.02 961.123 721C963.643 721.84 963.924 722.12 962.104 722.26C959.724 722.4 959.863 722.821 962.943 726.181C964.904 728.421 971.624 736.121 977.924 743.4C995.424 763.7 995.284 763.56 1000.18 760.9C1005.64 758.1 1006.9 758.241 1008.72 761.601C1009.98 763.84 1009.56 764.82 1007.04 766.78C1005.36 768.18 1001.44 771.68 998.504 774.48C995.425 777.42 992.765 779.799 992.344 779.8C991.924 779.8 990.104 781.061 988.144 782.601C983.524 786.24 982.263 786.1 980.863 782.181C979.883 779.801 980.304 778.26 982.544 775.88C985.484 772.8 985.483 772.66 982.823 768.181C981.423 765.801 979.464 763 978.764 762.16C977.924 761.32 971.204 753.48 963.924 744.66C944.044 720.86 936.623 713.44 933.823 714.42C932.563 714.98 931.863 715.961 932.283 716.521C933.123 717.92 925.984 717.78 923.604 716.24C920.244 714.28 922.064 711.48 932.984 702.38L943.903 693.28L954.264 695.101C960.004 696.081 970.644 697.9 977.924 699.16C985.204 700.42 995.704 702.38 1001.02 703.5C1006.48 704.62 1014.88 706.02 1019.92 706.44L1028.88 707.42L1024.96 702.66C1018.8 695.24 1004.38 679 997.943 672L992.064 665.7L987.163 668.36C983.104 670.46 981.844 670.74 980.024 669.2C976.524 666.26 977.644 664.02 986.044 657.58C990.384 654.08 995.844 649.32 998.084 646.94ZM292.623 775.74C293.883 773.5 294.723 773.92 293.743 776.3C293.323 777.56 292.624 778.26 292.344 777.84C291.924 777.42 292.063 776.58 292.623 775.74ZM328.184 768.181C330.004 765.941 331.123 765.24 331.123 766.36C331.123 766.641 330.003 767.76 328.743 768.74C326.504 770.56 326.364 770.42 328.184 768.181ZM1040.92 736.4C1041.76 736.401 1042.32 736.96 1042.32 737.8C1042.32 738.5 1041.76 739.2 1040.92 739.2C1040.22 739.2 1039.52 738.5 1039.52 737.8C1039.52 736.96 1040.22 736.4 1040.92 736.4ZM739.924 580.86C726.484 577.5 725.224 577.5 716.824 582.26C679.164 603.4 656.763 614.6 651.863 614.6C649.763 614.599 644.864 613.76 641.084 612.64C633.384 610.4 606.085 607.04 602.164 607.74C599.784 608.3 599.644 610.82 599.644 660.8C599.644 689.639 599.784 714.419 599.784 715.96C599.924 718.34 600.904 718.48 615.744 717.5C624.284 717.08 638.704 715.68 647.384 714.7L663.484 712.88L674.403 701.4C680.423 695.1 685.044 689.36 684.484 688.66C684.064 687.96 684.344 687.54 685.044 687.68C685.744 687.96 688.684 685.3 691.484 681.8C694.424 678.3 697.504 674.8 698.344 674.1C699.324 673.259 702.264 669.9 704.924 666.4C707.584 662.901 711.504 658.141 713.604 655.9C715.703 653.521 717.523 651.001 717.524 650.021C717.524 649.181 717.944 648.2 718.644 647.92C719.764 647.5 737.123 624.682 737.124 623.7C737.124 623.42 739.924 619.08 743.424 614.18C746.924 609.14 749.724 604.8 749.724 604.38C749.724 603.959 751.965 600.319 754.624 596.26C757.284 592.06 759.383 588.141 759.104 587.44C758.544 585.9 755.884 585.06 739.924 580.86ZM569.544 608.58C568.844 608.3 564.364 608.581 559.324 609.141C546.305 610.821 522.225 616.56 513.824 620.2C512.284 620.9 509.484 621.88 507.524 622.44C505.563 622.861 501.223 624.54 497.724 626.08C494.224 627.62 490.164 629.44 488.624 630C487.084 630.56 482.324 632.801 477.984 634.761C473.644 636.721 469.724 638.4 469.304 638.4C468.743 638.401 464.824 640.08 460.624 642.04L452.784 645.54L458.104 652.12C461.044 655.76 464.124 659.681 465.104 660.801C478.544 677.741 488.484 689.361 500.384 701.681C509.204 710.92 511.444 712.6 516.484 713.16C539.864 716.24 563.104 718.2 566.464 717.5L570.524 716.521V662.9C570.524 633.36 570.104 609 569.544 608.58ZM366.964 714C367.244 714 367.524 714.561 367.524 715.4C367.523 716.1 366.823 716.8 365.984 716.8C365.284 716.8 365.004 716.1 365.424 715.4C365.844 714.56 366.544 714 366.964 714ZM1066.54 703.36C1087.54 684.04 1091.18 682.08 1094.68 687.82C1095.94 689.92 1095.24 691.18 1090.2 695.8C1086.84 698.879 1084.46 701.959 1085.02 702.8C1085.44 703.5 1085.02 703.78 1083.9 703.5C1082.92 703.08 1079 705.46 1075.08 708.96C1071.3 712.46 1067.1 715.54 1065.7 715.96C1063.32 716.52 1059.12 713.58 1059.12 711.34C1059.12 710.639 1062.48 707.14 1066.54 703.36ZM109.084 711.34C110.624 711.2 111.463 711.62 110.903 712.04C110.483 712.46 109.223 712.601 108.243 712.181C107.123 711.761 107.544 711.34 109.084 711.34ZM114.823 574.42C110.344 563.78 117.203 561.961 124.203 571.9C126.723 575.4 129.104 578.2 129.804 578.2C130.364 578.2 130.924 578.9 130.924 579.74C130.924 581.28 137.644 590.1 143.804 596.96C146.184 599.62 146.183 599.9 143.243 602.98L140.163 606.2L136.524 602.7C131.904 598.36 130.364 598.36 124.764 602.7C122.384 604.66 119.724 606.76 119.024 607.32C110.344 613.62 106.144 616.84 104.604 618.38C103.624 619.36 101.663 620.761 100.403 621.601C98.3039 622.72 98.3036 623.14 100.123 624.54C101.943 625.8 101.803 625.94 99.7032 625.24C96.7628 624.261 86.6841 631.12 88.504 632.94C89.0652 633.5 93.1242 633.36 97.3234 632.8C101.523 632.1 112.024 630.841 120.424 630.141C128.964 629.301 142.404 627.901 150.384 627.061C163.964 625.521 165.084 625.66 166.764 627.9C167.884 629.3 170.404 632.38 172.504 634.76C179.784 642.739 184.263 649.879 183.564 651.84C182.444 654.78 177.124 654.22 173.484 650.86C169.844 647.5 167.043 648.48 159.623 655.34C157.383 657.58 154.723 659.4 153.743 659.4C152.903 659.401 151.924 659.82 151.644 660.38C151.504 661.08 148.564 663.881 145.344 666.681C142.124 669.48 140.024 672.279 140.443 672.84C141.003 673.4 140.723 673.4 139.743 672.84C137.922 671.861 124.904 680.96 126.304 682.36C126.863 682.78 126.304 683.2 125.044 683.2C122.384 683.2 117.904 687.96 119.304 689.36C119.864 689.92 119.444 689.92 118.184 689.5C116.924 689.08 114.683 690.2 112.863 692.16C109.923 695.24 109.784 695.941 111.464 700.561C112.724 704.2 112.863 706.021 111.743 707.141C109.083 709.8 105.303 707.279 99.5636 699.3C96.6236 695.1 91.0235 687.82 87.1036 683.061C81.7838 676.341 80.5242 673.821 81.504 672.141C83.604 668.781 87.1036 668.64 90.6036 671.86C92.2835 673.54 94.2434 674.8 94.9435 674.8C96.4835 674.8 137.504 644.84 141.144 640.92C143.524 638.54 143.523 638.4 140.443 638.4C138.623 638.4 126.863 639.66 114.123 641.2C101.383 642.74 83.0439 644 73.3839 644H55.8839L51.964 639.94C49.864 637.7 48.3237 634.9 48.6036 633.78C48.7436 632.8 59.3832 623.98 72.1232 614.46C84.8632 604.8 96.4836 595.98 98.0236 594.72C99.5638 593.46 104.464 589.4 108.804 585.9L116.924 579.46L114.823 574.42ZM426.044 660.38C423.804 658.14 419.464 657.721 412.884 658.98C409.944 659.54 392.025 679.418 392.024 682.22C392.024 684.04 406.722 689.08 409.243 688.101C410.223 687.821 410.784 687.96 410.224 688.66C409.804 689.36 411.484 690.48 414.004 690.9C416.524 691.46 419.323 692.44 420.024 693C420.864 693.56 429.543 696.081 439.623 698.601C449.563 701.121 458.664 703.5 459.924 703.92C461.324 704.48 461.184 703.78 459.224 701.12C453.064 693 428.425 662.76 426.044 660.38ZM790.604 597.8C790.044 597.8 786.543 602.7 782.903 608.58C771.283 627.34 766.104 635.04 756.724 647.78C747.904 659.82 728.863 684.6 727.323 686C726.903 686.42 723.823 690.2 720.323 694.4C716.823 698.6 713.463 702.66 712.623 703.22C711.783 703.92 712.764 704.06 714.724 703.64C716.684 703.22 720.604 702.38 723.403 701.96C726.343 701.4 728.443 700.7 728.163 700.14C727.885 699.72 730.265 699.16 733.484 699.021C738.524 698.741 777.724 686.84 784.304 683.48C785.704 682.78 789.344 681.38 792.424 680.4C795.504 679.42 802.643 676.48 808.243 673.96C813.842 671.301 818.741 669.201 819.163 669.2C820.703 669.2 848.284 654.92 852.344 652.12C854.584 650.58 859.204 647.78 862.844 645.82C874.184 639.94 874.323 639.24 865.783 633.78C855.423 627.2 832.324 614.88 819.724 609.28C808.664 604.24 792.284 597.8 790.604 597.8ZM1024.12 662.061C1024.12 647.361 1038.82 636.44 1051.7 641.34C1053.8 642.18 1056.6 644 1058 645.4C1059.26 646.8 1061.5 648.76 1062.9 649.88C1065.84 652.12 1073.26 662.76 1075.64 668.22C1079.56 677.46 1076.34 689.36 1068.78 693.98C1061.5 698.46 1055.76 699.16 1050.02 696.36C1038.82 691.04 1024.12 671.581 1024.12 662.061ZM753.083 686.14C754.623 686 755.463 686.42 754.903 686.84C754.483 687.26 753.223 687.4 752.243 686.98C751.123 686.561 751.543 686.14 753.083 686.14ZM1040.64 651C1039.66 651 1037.7 651.98 1036.3 652.96C1034.06 654.78 1033.92 655.34 1035.74 659.68C1038.68 666.539 1048.06 676.759 1049.6 674.521C1050.44 673.261 1050.58 673.82 1050.02 675.78C1049.46 678.16 1050.16 679.28 1053.52 681.24C1055.76 682.64 1057.72 684.18 1057.72 684.74C1057.72 686.7 1063.32 686.98 1065.7 685.3C1068.08 683.48 1068.08 683.06 1064.86 677.04C1061.22 670.04 1043.44 651 1040.64 651ZM395.384 679.98C397.204 677.74 398.323 677.04 398.323 678.16C398.323 678.44 397.203 679.56 395.943 680.54C393.704 682.36 393.564 682.22 395.384 679.98ZM148.283 669.2C149.543 669.2 150.523 669.48 150.524 669.76C150.524 671.3 147.864 671.86 147.024 670.601C146.604 669.901 147.164 669.2 148.283 669.2ZM383.203 597.94C382.641 597.942 377.462 600.041 371.724 602.561C349.464 612.221 322.724 626.08 310.264 634.48L302.844 639.521L306.064 641.62C320.904 650.86 327.204 654.36 344.144 662.76C354.924 668.08 364.024 671.86 364.584 671.16C365.285 670.459 369.905 663.319 375.084 655.34C380.264 647.36 385.163 640.221 385.863 639.24C386.563 638.4 389.644 633.78 392.724 628.88C399.024 618.94 399.164 619.92 389.644 605.78C386.704 601.44 383.763 597.8 383.203 597.94ZM889.163 662.2C889.443 662.2 889.724 662.761 889.724 663.601C889.723 664.3 889.024 665 888.184 665C887.484 665 887.204 664.3 887.623 663.601C888.043 662.761 888.743 662.201 889.163 662.2ZM1017.26 663.04C1017.12 661.5 1017.54 660.66 1017.96 661.22C1018.38 661.64 1018.52 662.9 1018.1 663.88C1017.68 665 1017.26 664.58 1017.26 663.04ZM1043.72 657.16C1043.72 656.04 1044.84 656.74 1046.66 658.98C1048.48 661.22 1048.34 661.36 1046.24 659.54C1044.84 658.56 1043.72 657.44 1043.72 657.16ZM518.724 624.4C521.384 622.72 521.524 622.72 521.524 624.4C521.523 625.1 520.404 625.801 519.144 625.801C517.044 625.801 516.904 625.52 518.724 624.4ZM1059.4 552.72C1060.66 550.06 1062.62 550.62 1072.84 556.08C1075.36 557.48 1078.3 558.601 1079.42 558.601C1080.54 558.601 1081.52 559.16 1081.52 559.86C1081.52 560.421 1087.4 563.361 1094.68 566.021C1101.96 568.82 1111.2 572.601 1115.4 574.561C1133.04 582.54 1138.64 584.22 1140.74 582.12C1141.86 581 1143.26 578.76 1143.68 577.08C1144.8 573.44 1149.42 570.64 1152.36 571.76C1154.6 572.6 1155.02 578.34 1152.92 580.44C1152.22 581.14 1147.88 591.22 1143.26 602.7C1134.86 623.7 1132.76 626.64 1128.42 623C1126.88 621.6 1126.88 620.34 1128.56 614.32C1130.52 607.88 1130.52 607.18 1128.28 604.66C1127.02 603.26 1124.78 602 1123.52 602C1122.26 602 1120.72 601.44 1119.88 600.88C1118.06 599.2 1076.06 581.421 1071.3 580.16L1067.38 579.181L1067.66 589.26C1068.08 601.3 1066.96 602.981 1059.82 600.601L1054.5 598.92L1055.48 591.641C1056.04 587.721 1056.74 577.92 1057.3 569.8C1057.72 561.68 1058.7 553.98 1059.4 552.72ZM208.903 401.8C176.144 401.8 148.983 402.22 148.703 402.78C148.004 404.326 151.363 436.236 152.484 438.06C153.044 438.9 153.744 442.12 154.024 445.34C154.724 451.639 155.704 454.02 157.524 452.9C158.084 452.48 158.364 453.32 158.084 454.72C157.244 457.66 160.463 470.4 163.823 478.1C166.623 484.12 166.904 484.96 167.184 487.34C167.184 488.04 168.024 488.32 169.004 487.76C169.844 487.2 170.123 487.34 169.703 488.18C168.583 489.86 173.904 502.6 175.584 502.6C176.144 502.601 177.544 505.26 178.524 508.479C179.504 511.839 181.463 516.18 182.863 518.28C184.403 520.24 185.523 522.339 185.524 522.76C185.524 524.44 202.464 549.08 208.624 556.5C225.144 576.38 246.424 597.66 263.224 611.1C266.164 613.34 269.244 616 270.084 616.84C270.924 617.54 273.584 619.36 275.964 620.76L280.304 623.42L286.464 619.22C301.164 609.14 331.964 592.76 357.024 581.84C372.564 574.98 372.144 575.4 369.484 570.08C368.224 567.56 366.684 566.02 365.844 566.439C364.864 566.999 364.724 566.72 365.283 565.74C365.843 564.76 365.424 562.1 364.304 559.58C363.184 557.06 360.243 550.34 357.863 544.6C355.343 538.86 352.824 532.84 352.124 531.3C351.424 529.76 349.884 525.7 348.764 522.2C347.644 518.7 346.104 514.22 345.124 512.26L343.443 508.62L309.004 507.78C289.964 507.22 261.403 506.8 245.443 506.8C210.864 506.8 210.443 506.52 225.703 493.22C242.503 478.52 241.804 480.06 232.984 477.12C228.924 475.72 224.583 473.62 223.323 472.36C221.503 470.54 221.784 469.839 226.124 466.479C228.784 464.38 232.564 461.3 234.524 459.62L238.024 456.68L234.384 452.62C229.904 447.86 227.524 443.38 227.664 440.02C227.665 438.619 234.384 431.759 243.064 424.479C251.464 417.2 258.044 410.76 257.484 410.06C257.064 409.36 257.624 409.22 258.604 409.5C259.724 409.92 262.384 408.38 264.624 406L268.684 401.8H208.903ZM339.384 620.2C340.224 620.2 341.204 620.761 341.624 621.601C342.044 622.44 341.483 622.58 340.363 622.16C337.844 621.18 337.424 620.2 339.384 620.2ZM1019.92 455.28C1019.92 452.9 1017.96 453.18 1015.3 456.12C1013.9 457.52 1012.92 459.48 1012.92 460.32C1012.92 461.3 1012.22 462 1011.38 462C1010.68 462 1010.4 461.3 1010.96 460.46C1012.5 457.8 1011.66 458.36 987.164 474.46C984.224 476.42 979.604 480.9 976.664 484.4C973.864 487.9 970.784 491.4 969.664 492.24C968.544 493.22 968.124 494.481 968.824 495.601C969.524 496.72 969.384 497.14 968.544 496.58C967.704 496.02 963.924 499.66 960.004 504.42C956.224 509.18 951.464 514.78 949.644 516.74C947.824 518.7 944.884 522.2 943.064 524.44C941.383 526.681 937.884 530.741 935.504 533.4C932.984 536.06 928.504 541.38 925.424 545.3C919.124 553.14 916.744 555.941 906.664 567.561C902.744 572.181 899.524 576.24 899.524 576.94C899.523 578.901 889.445 587.999 887.204 588C885.804 588 881.744 587.02 877.824 585.76C874.044 584.64 868.304 583.1 865.224 582.4C862.144 581.84 853.324 579.6 845.624 577.5C816.784 569.66 807.124 567.84 805.304 569.66C802.504 572.46 803.064 575.54 806.844 577.08C808.944 577.92 812.584 579.32 814.824 580.3C817.204 581.28 821.544 582.96 824.624 583.94C827.704 585.06 830.643 586.46 831.064 587.16C831.624 587.86 833.164 588 834.564 587.44C835.964 586.88 836.664 586.88 836.104 587.58C834.987 588.562 877.824 610.4 881.044 610.4C881.884 610.4 882.724 610.96 882.724 611.66C882.724 612.22 886.504 614.88 891.124 617.26L899.664 621.88L904.844 617.96C932.144 597.52 965.044 562.94 982.964 535.78C995.144 517.3 1008.02 491.54 1014.6 472.5C1017.54 463.96 1019.92 456.261 1019.92 455.28ZM387.124 613.061C387.124 611.101 388.104 611.52 389.084 614.04C389.504 615.16 389.364 615.72 388.524 615.3C387.684 614.88 387.124 613.9 387.124 613.061ZM783.323 612.36C783.323 610.4 785.004 608.72 785.984 609.7C786.263 610.12 785.843 611.24 785.003 612.08C784.023 613.06 783.324 613.2 783.323 612.36ZM688.964 602C689.244 602 689.524 602.561 689.524 603.4C689.523 604.1 688.823 604.8 687.984 604.8C687.284 604.8 687.004 604.1 687.424 603.4C687.844 602.56 688.544 602 688.964 602ZM1091.88 593.74C1093.42 593.6 1094.26 594.02 1093.7 594.44C1093.28 594.86 1092.02 595 1091.04 594.58C1089.92 594.16 1090.34 593.74 1091.88 593.74ZM422.123 587.86C423.663 585.06 422.963 584.781 417.644 586.181C414.844 586.881 414.563 587.86 416.383 590.66C417.783 592.9 420.023 591.78 422.123 587.86ZM135.123 581C135.963 581 136.524 581.281 136.524 581.561C136.523 581.981 135.963 582.681 135.123 583.101C134.423 583.52 133.724 583.24 133.724 582.54C133.724 581.7 134.423 581 135.123 581ZM1156 576.8C1156 574.84 1156.28 574.141 1156.7 574.98C1156.98 575.96 1156.98 577.641 1156.7 578.48C1156.28 579.46 1156 578.76 1156 576.8ZM814.684 571.34C816.224 571.2 817.064 571.62 816.504 572.04C816.084 572.46 814.824 572.6 813.844 572.18C812.724 571.76 813.144 571.34 814.684 571.34ZM907.924 569.66C907.924 567.7 908.904 568.12 909.884 570.64C910.304 571.759 910.164 572.32 909.324 571.9C908.484 571.48 907.924 570.5 907.924 569.66ZM636.884 568.54C638.424 568.4 639.263 568.82 638.703 569.24C638.283 569.66 637.024 569.8 636.044 569.38C634.924 568.96 635.344 568.54 636.884 568.54ZM618.823 565.601C619.663 565.601 621.203 566.3 622.323 567C623.443 567.7 623.864 568.4 623.024 568.4C622.324 568.4 620.644 567.7 619.524 567C618.404 566.3 618.124 565.601 618.823 565.601ZM1091.88 483.98C1098.88 479.501 1109.8 478.94 1117.64 482.58C1122.82 485.1 1134.72 496.16 1134.72 498.54C1134.72 499.24 1136.82 504.421 1139.48 510.021C1142.14 515.48 1145.36 523.46 1146.62 527.66C1149.42 536.2 1150.96 535.64 1154.74 525C1159.92 510.161 1163.7 501.061 1165.24 499.521C1166.5 498.261 1168.04 498.4 1172.1 500.08C1175.04 501.34 1178.54 502.74 1180.08 503.16C1182.18 503.86 1182.46 504.841 1181.62 509.32C1181.06 512.12 1180.08 515.341 1179.24 516.181C1178.4 517.161 1178.12 518.981 1178.68 520.101C1179.1 521.36 1178.96 522.06 1178.26 521.641C1177.56 521.221 1174.34 527.66 1171.12 535.92C1160.9 561.68 1158.94 565.601 1156.14 565.601C1154.74 565.601 1152.64 564.76 1151.38 563.78C1149.28 562.24 1141.02 544.6 1139.62 539C1138.92 536.479 1132.2 523.18 1128.56 517.3C1124.64 511 1114.56 503.86 1108.4 503.021C1103.92 502.461 1102.24 502.88 1099.16 505.82C1094.68 510.02 1092.44 516.88 1094.12 521.5C1094.82 523.18 1097.2 525.98 1099.58 527.8C1104.34 531.02 1105.18 534.801 1101.82 537.601C1100.14 539 1099.02 538.86 1095.94 536.76C1093.7 535.36 1089.78 532.98 1087.12 531.58C1079.56 527.52 1077.74 525.28 1076.76 519.4C1074.8 506.66 1081.52 490.7 1091.88 483.98ZM773.524 561.54C773.523 557.34 764.984 555.8 760.644 559.16C758.404 560.84 758.684 561.121 763.584 562.521C771.144 564.9 773.524 564.62 773.524 561.54ZM416.243 508.62C381.664 507.78 378.724 507.92 378.724 510.16C378.724 512.4 382.783 522.76 389.363 537.32C391.183 541.38 392.723 545.439 392.724 546.42C392.724 547.54 393.284 547.4 394.264 546C395.524 544.18 395.663 544.32 394.963 546.42C394.403 548.38 399.023 560.141 401.963 564.061C402.243 564.341 406.723 563.22 411.903 561.68C425.063 557.48 441.444 553 447.604 551.74C450.964 551.04 454.183 548.94 456.703 545.86C458.803 543.2 463.564 537.881 467.064 534.101C470.704 530.181 476.863 523.6 480.783 519.4C484.703 515.2 487.923 511.28 487.923 510.58C487.922 510.02 480.223 509.601 470.844 509.601C461.324 509.601 436.823 509.18 416.243 508.62ZM88.3634 471.8C91.1634 471.8 92.1435 473.62 96.4835 487.62C99.2834 496.3 101.523 504.14 101.524 505.12C101.524 505.96 102.224 506.8 102.924 506.8C103.764 506.8 104.323 507.64 104.323 508.76C104.323 509.74 106.284 516.32 108.524 523.32C110.904 530.32 112.724 537.041 112.724 538.021C112.723 539.28 109.503 540.541 103.764 541.521C90.1841 544.04 87.5237 543.76 87.5236 539.98C87.5236 537.6 88.784 536.2 92.424 534.8C96.3436 533.26 97.3234 532.14 97.3234 529.2C97.3234 525.14 92.4241 509.741 90.464 507.78C88.784 506.1 44.6839 518.981 24.8038 527.101L18.924 529.48L19.7638 536.2C20.6038 542.22 20.3236 543.06 17.5236 543.9C15.8436 544.46 13.8834 544.32 13.3234 543.62C12.7628 543.058 9.26314 532.839 5.48352 521.08C-0.116442 503.02 -0.956592 499.38 0.863403 498.26C4.36338 496.02 6.18333 496.86 8.28333 501.9C10.5233 507.08 11.7835 507.64 16.4034 505.26C17.9434 504.42 21.0235 503.58 22.9835 503.3C30.9635 502.46 80.1041 485.38 83.0441 482.44C84.4439 481.041 84.5838 479.78 83.464 477.82C81.784 474.46 83.8836 471.8 88.3634 471.8ZM93.2638 524.44C93.1238 522.9 93.544 522.06 93.964 522.62C94.3839 523.04 94.5236 524.3 94.1036 525.28C93.6837 526.4 93.2638 525.98 93.2638 524.44ZM117.064 523.04C116.924 521.5 117.344 520.66 117.764 521.22C118.184 521.64 118.323 522.9 117.903 523.88C117.483 525 117.064 524.58 117.064 523.04ZM1074.66 521.641C1074.52 520.101 1074.94 519.26 1075.36 519.82C1075.78 520.24 1075.92 521.5 1075.5 522.48C1075.08 523.6 1074.66 523.18 1074.66 521.641ZM232.283 508.34C233.823 508.2 234.664 508.62 234.104 509.04C233.684 509.46 232.423 509.6 231.443 509.18C230.324 508.76 230.744 508.34 232.283 508.34ZM978.764 488.601C979.044 488.601 979.324 489.16 979.324 490C979.324 490.7 978.624 491.4 977.784 491.4C977.084 491.4 976.804 490.7 977.224 490C977.644 489.16 978.344 488.601 978.764 488.601ZM1005.36 488.18C1005.78 486.78 1006.62 486.08 1007.04 486.5C1007.46 486.92 1007.04 488.041 1006.06 489.021C1004.66 490.28 1004.52 490.14 1005.36 488.18ZM1003.26 441.84C1003.12 440.3 1003.54 439.461 1003.96 440.021C1004.38 440.441 1004.52 441.701 1004.1 442.681C1003.68 443.8 1003.26 443.38 1003.26 441.84ZM751.123 292.601C750.703 292.601 746.923 295.261 742.724 298.48C732.784 306.04 722.423 313.32 693.024 332.92C680.005 341.599 669.507 349.578 669.644 350.42C669.924 351.4 669.644 351.68 669.224 351.12C667.684 349.58 659.845 354.06 660.963 355.88C661.523 356.86 661.383 357 660.403 356.44C659.003 355.6 654.383 357.84 649.623 361.62C642.903 366.8 631.704 374.641 626.524 377.721C623.024 379.681 618.263 382.9 615.883 384.86C613.503 386.821 604.263 393.821 595.303 400.4C586.345 406.979 578.927 412.857 578.923 413.42C578.923 413.98 581.584 412.581 584.943 410.341C588.163 407.961 596.144 402.221 602.724 397.601C609.303 392.981 615.321 388.642 616.303 387.801C617.283 387.101 618.263 386.401 618.543 386.4C618.963 386.4 623.163 383.74 627.923 380.38C632.683 377.16 637.723 373.8 639.263 372.96C640.663 372.12 643.043 370.441 644.443 369.181C645.843 367.781 647.383 366.801 647.943 366.801C648.365 366.799 655.224 362.459 663.203 357C671.183 351.68 685.183 342.16 694.423 336C703.663 329.7 712.483 323.4 714.163 321.86C715.703 320.46 717.663 319.2 718.503 319.2C719.343 319.2 720.324 318.64 720.604 318.08C720.886 317.519 725.785 313.459 731.524 309.12C742.723 300.86 752.243 292.741 751.123 292.601ZM321.464 243.601C301.584 243.601 285.204 244.16 283.104 244.86C281.144 245.701 276.804 248.92 273.724 252L267.844 257.88L263.084 252.141C260.004 248.641 256.224 245.98 253.004 245C247.124 243.46 198.264 243.041 195.884 244.721C194.483 245.562 184.964 260.681 178.384 272.58C176.844 275.24 176.144 278.039 176.564 278.88C177.124 279.72 176.844 280 176.004 279.44C175.164 279.02 173.904 280.7 172.784 283.78C171.944 286.72 170.264 290.501 169.144 292.181C167.884 294.001 167.464 296.52 168.024 298.2C168.584 300.16 168.304 301.001 167.184 300.721C162.564 299.602 149.264 352.381 149.124 371.98V378H300.744L308.584 372.12C312.924 368.9 316.704 365.82 316.844 365.12C317.124 364.56 317.964 364 318.664 364C322.024 364 327.064 357.28 327.624 352.101C328.884 342.301 332.524 320.04 333.784 315C340.924 286.44 344.704 274.26 349.744 263.061C350.864 260.401 352.404 256.48 352.824 254.38C353.384 252.281 354.364 250.181 355.064 249.761C355.764 249.341 356.324 247.8 356.324 246.4C356.324 243.88 354.644 243.741 321.464 243.601ZM860.323 354.48C862.283 354.48 862.984 354.761 862.144 355.181C861.164 355.461 859.484 355.461 858.644 355.181C857.664 354.761 858.364 354.48 860.323 354.48ZM422.824 224.7C401.404 218.68 404.064 217.841 397.064 232.681C384.744 259 376.204 280.7 371.584 297.5C363.604 327.46 362.624 334.32 367.524 327.46C368.644 326.06 370.044 324.8 370.744 324.8C371.304 324.8 372.564 324.24 373.544 323.4C400.003 301.981 404.344 297.921 402.244 296.521C400.984 295.821 401.544 295.541 403.924 295.681C406.164 295.961 407.284 295.4 407.004 294.28C406.864 293.16 407.144 292.74 407.844 293.16C408.544 293.58 410.644 292.32 412.464 290.36C415.264 287.42 415.404 286.58 413.724 285.46C412.184 284.34 412.324 284.2 414.704 284.9C417.224 285.6 419.464 284.2 425.624 278.46C429.824 274.54 432.904 270.62 432.344 269.78C431.924 269.08 432.204 268.801 432.904 269.221C433.746 269.778 439.625 264.319 446.064 257.181C452.504 250.181 459.084 242.76 460.904 240.8C462.584 238.84 463.564 236.6 463.004 235.62C462.444 234.78 456.004 232.82 448.724 231.28C441.444 229.6 429.824 226.66 422.824 224.7ZM1121.56 294C1121.84 294 1122.12 294.56 1122.12 295.4C1122.12 296.1 1121.42 296.8 1120.58 296.8C1119.88 296.8 1119.6 296.1 1120.02 295.4C1120.44 294.56 1121.14 294 1121.56 294ZM335.324 291.061C335.324 289.101 336.304 289.52 337.284 292.04C337.704 293.16 337.564 293.721 336.724 293.301C335.884 292.881 335.324 291.901 335.324 291.061ZM445.784 233.8C446.624 233.8 447.604 234.36 448.024 235.2C448.444 236.04 447.884 236.18 446.764 235.76C444.244 234.78 443.824 233.8 445.784 233.8ZM270.224 11.6201C213.249 11.4801 165.793 11.7598 164.804 12.1797C162.424 13.1596 162.284 211.377 164.663 211.4C166.203 211.4 190.564 205.66 201.064 203C203.863 202.16 207.783 201.6 209.743 201.6C214.923 201.6 246.563 195.16 255.243 192.36C260.703 190.54 263.084 189 264.064 186.48C265.744 182 265.463 150.08 263.783 148.96C262.943 148.54 260.283 149.1 257.623 150.36C250.483 153.86 237.884 155.68 229.764 154.7C215.064 152.74 200.924 142.8 200.924 134.4C200.924 132.72 199.103 129.5 196.863 127.4C194.623 125.16 192.524 121.24 192.104 118.72C191.824 116.2 190.564 112 189.584 109.62C187.344 104.02 189.443 91.42 193.783 85.96C195.323 84 197.004 79.5199 197.564 75.8799C198.824 67.3399 205.684 53.0601 210.584 48.5801C214.784 44.9402 218.704 42.56 229.623 37.2402C233.543 35.4202 237.604 32.8996 238.584 31.6396C239.984 30.1 243.064 29.3998 249.783 29.2598C254.823 29.1198 260.984 28.6996 263.224 28.1396C268.124 27.0198 284.644 30.8002 289.264 34.1602C291.084 35.4201 294.443 36.4003 296.823 36.4004C302.983 36.4004 314.044 41.0201 317.544 45.0801C319.224 47.04 322.723 49.9802 325.243 51.6602C328.603 54.0401 329.724 55.8599 329.724 58.7998C329.724 61.0395 330.284 63.1392 330.984 63.5596C331.543 63.9795 332.523 66.2198 332.943 68.5996C333.503 70.8396 335.464 75.1798 337.424 78.2598C340.644 82.8797 341.064 85.12 340.924 93.3799C340.784 98.5597 341.203 105.28 341.623 108.22C342.323 112.14 341.903 115.22 339.663 120.54C337.983 124.32 337.004 128.1 337.424 128.8C337.844 129.5 337.564 130.34 336.724 130.9C335.884 131.46 335.604 132.44 336.024 133.14C336.584 133.84 336.304 134.4 335.604 134.4C334.904 134.4 332.663 136.78 330.703 139.72C328.323 143.36 324.403 146.58 318.943 149.24C311.664 152.88 309.424 153.3 298.224 153.16C291.364 153.02 283.104 152.32 280.024 151.48C276.944 150.501 274.145 150.36 273.584 150.92C271.904 152.74 274.283 187.599 276.243 188.86C277.223 189.42 283.104 191.24 289.544 193.06C295.844 194.74 305.083 197.4 310.123 198.8C315.163 200.2 324.963 202.02 331.823 203C338.823 203.84 347.924 205.24 352.264 205.94C356.604 206.64 363.324 207.62 367.384 208.04L374.524 208.74L374.243 110.32L373.823 11.9004L270.224 11.6201ZM561.144 66.0801C555.824 66.3601 548.823 66.6403 545.323 66.7803C541.823 67.0603 533.844 67.9003 527.544 68.7402L516.064 70.2803L500.943 86.5205C492.684 95.3403 483.444 105.28 480.504 108.36C476.864 112.42 475.603 114.8 476.163 116.9C476.583 118.72 476.443 119.141 475.743 117.881C474.763 116.621 473.224 117.601 469.724 121.381C464.544 127.261 431.933 170.508 431.924 171.5C431.924 171.92 429.684 175.7 426.884 179.9C424.084 183.96 422.264 188.159 422.823 189C423.243 189.84 422.964 190.26 422.124 190.12C421.144 189.84 419.743 190.82 418.903 192.08C417.643 194.04 417.783 195.021 419.323 196.561C421.703 198.66 447.042 205.1 448.304 203.841C448.864 203.421 450.123 203.841 451.243 204.681C452.363 205.661 454.884 206.641 456.984 206.921C458.944 207.201 464.124 208.32 468.464 209.44C481.764 212.8 482.184 212.52 489.743 201.181C493.383 195.721 496.883 190.4 497.443 189.7C500.803 185.36 507.524 170.52 506.684 169.12C506.124 168.14 506.264 168.001 507.243 168.561C508.363 169.121 509.483 168.14 510.323 166.04C512.003 161.56 514.384 161.421 519.564 165.48C523.344 168.56 524.884 168.7 544.764 168.7C560.303 168.7 566.463 168.141 568.144 166.881C570.104 165.201 570.384 159.18 570.524 115.36V65.8008L561.144 66.0801ZM705.203 77C703.944 77.0002 703.804 77.7006 704.783 79.6602C705.623 81.0602 708.004 83.8607 710.104 85.6807C712.344 87.5007 715.703 91.1408 717.663 93.8008C719.763 96.4607 723.263 100.66 725.363 102.9C727.603 105.28 731.384 109.62 733.624 112.7C736.004 115.64 738.804 119.141 739.924 120.261C741.044 121.521 745.385 126.981 749.584 132.301C753.784 137.76 757.703 142.24 758.403 142.521C758.963 142.801 759.524 143.64 759.524 144.48C759.524 145.321 762.464 149.801 765.964 154.561C769.604 159.18 773.804 165.48 775.484 168.28C777.023 171.22 779.124 173.6 780.104 173.601C781.084 173.601 781.504 174.44 781.224 175.42C780.804 176.4 782.204 179.201 784.304 181.721L788.224 186.341L802.783 180.601C833.863 168.281 874.324 146.16 872.084 142.66C871.664 141.82 870.264 141.54 869.144 141.96C868.024 142.38 867.464 142.24 867.884 141.54C869.003 139.86 859.064 134.12 857.104 135.24C856.124 135.8 855.844 135.66 856.403 135.101C857.243 134.261 832.327 119.002 830.084 119C829.804 119 825.043 116.9 819.443 114.24C803.904 107.1 800.263 105.561 790.323 102.061C785.284 100.381 780.525 98.421 779.544 97.7207C776.604 95.4807 710.523 77.14 705.203 77ZM464.824 84.2803C470.004 78.6804 470.144 78.4 466.924 78.54C464.964 78.54 459.644 79.5197 455.024 80.6396C450.404 81.7596 444.384 83.3 441.724 84C439.064 84.7 434.164 85.9598 430.804 86.7998C427.584 87.6398 425.204 88.9006 425.624 89.6006C426.044 90.4401 425.484 90.5799 424.364 90.1602C422.124 89.3202 404.764 94.4998 393.704 99.2598L387.124 102.061V143.5C387.264 166.173 387.404 184.788 387.684 184.8C387.824 184.8 391.464 179.62 395.524 173.18C404.064 160.02 417.784 140.98 429.124 126.7C436.124 117.74 456.702 92.6814 458.524 91C458.944 90.58 461.744 87.5003 464.824 84.2803ZM898.684 161C897.984 161 894.484 162.96 890.844 165.2C887.064 167.58 879.224 172.06 873.344 175.14C867.324 178.36 861.864 181.44 861.024 182C860.324 182.56 858.363 183.4 856.823 183.96C852.624 185.08 862.984 183.68 870.124 182C877.544 180.32 891.964 178.22 906.243 176.96C911.703 176.4 916.323 175.7 916.323 175.42C916.322 173.879 900.504 161 898.684 161ZM640.243 67.7607C616.303 65.2408 600.484 65.2408 599.504 67.7607C599.084 68.8833 598.664 89.7418 598.524 113.96C598.524 155.259 598.664 158.2 600.903 158.2C603.143 158.2 603.143 158.48 601.323 159.74C598.944 161.28 607.204 160.72 624.424 157.92C640.104 155.4 678.044 155.821 695.403 158.761C703.663 160.161 711.224 160.72 712.064 160.16C713.044 159.6 713.323 159.74 712.903 160.44C712.484 161.28 715.564 162.68 719.903 163.66C724.103 164.64 730.264 166.6 733.764 168C737.124 169.54 739.924 170.24 739.924 169.54C739.922 167.998 726.763 149.379 717.663 138.04C713.323 132.72 708.004 126.141 705.903 123.341C703.804 120.541 701.284 117.601 700.304 116.9C699.324 116.06 696.803 113.121 694.703 110.181C688.963 102.621 675.524 88.9007 673.984 89.1807C673.424 89.4604 673.144 88.7601 673.424 87.7803C673.843 86.9398 670.343 82.3195 665.724 77.8398L657.464 69.5801L640.243 67.7607ZM401.124 152.601C401.964 152.601 402.524 152.88 402.524 153.16C402.524 153.58 401.964 154.28 401.124 154.7C400.424 155.12 399.724 154.84 399.724 154.14C399.724 153.3 400.424 152.601 401.124 152.601ZM457.684 145.74C459.223 145.6 460.064 146.02 459.504 146.44C459.084 146.86 457.824 147 456.844 146.58C455.724 146.16 456.144 145.74 457.684 145.74Z" fill="#416933"/>
</svg>
